<svg width="17" height="17" viewBox="0 0 17 17" fill="none" xmlns="http://www.w3.org/2000/svg">
<path d="M13.183 5.73507C14.1035 5.73507 14.8497 4.98887 14.8497 4.0684C14.8497 3.14793 14.1035 2.40173 13.183 2.40173C12.2625 2.40173 11.5164 3.14793 11.5164 4.0684C11.5164 4.98887 12.2625 5.73507 13.183 5.73507Z" fill="white"/>
<path d="M13.183 5.73507C14.1035 5.73507 14.8497 4.98887 14.8497 4.0684C14.8497 3.14793 14.1035 2.40173 13.183 2.40173C12.2625 2.40173 11.5164 3.14793 11.5164 4.0684C11.5164 4.98887 12.2625 5.73507 13.183 5.73507Z" fill="white"/>
<path d="M13.9964 6.60844C13.5297 6.75511 13.0164 6.78177 12.483 6.64844C11.5897 6.41511 10.863 5.70177 10.6164 4.80844C10.4964 4.37511 10.4897 3.94844 10.563 3.56177C10.6497 3.13511 10.3497 2.73511 9.92302 2.73511H4.84969C2.84969 2.73511 1.51636 3.73511 1.51636 6.06844V10.7351C1.51636 13.0684 2.84969 14.0684 4.84969 14.0684H11.5164C13.5164 14.0684 14.8497 13.0684 14.8497 10.7351V7.24177C14.8497 6.80177 14.423 6.46844 13.9964 6.60844ZM10.5297 7.83511L9.74302 8.46177C9.30302 8.81511 8.74302 8.98844 8.18302 8.98844C7.62302 8.98844 7.05636 8.81511 6.62302 8.46177L4.53636 6.79511C4.32302 6.62177 4.28969 6.30177 4.45636 6.08844C4.62969 5.87511 4.94302 5.83511 5.15636 6.00844L7.24302 7.67511C7.74969 8.08177 8.60969 8.08177 9.11636 7.67511L9.90302 7.04844C10.1164 6.87511 10.4364 6.90844 10.603 7.12844C10.7764 7.34177 10.743 7.66177 10.5297 7.83511Z" fill="white"/>
</svg>
